<?xml version="1.0" encoding="UTF-8"?>
<svg id="IT_LABEL_-_LABEL_LOGO_ZWART" data-name="IT LABEL - LABEL LOGO ZWART" xmlns="http://www.w3.org/2000/svg" viewBox="128.38 174.71 743.30 269.83">
  <defs>
    <style>
      .cls-1 {
        font-family: Poppins-Light, Poppins;
        font-size: 17.78px;
        font-weight: 300;
        letter-spacing: .06em;
      }

      .cls-2 {
        font-family: Poppins-ExtraLight, Poppins;
        font-size: 98.17px;
        font-weight: 200;
        letter-spacing: .06em;
      }

      .cls-3 {
        fill: none;
        stroke: #191919;
        stroke-miterlimit: 10;
        stroke-width: 3.89px;
      }

      .cls-4 {
        fill: #191919;
      }

      .cls-5 {
        fill: #191919;
      }
    </style>
  </defs>
  <circle class="cls-3" cx="261.14" cy="309.95" r="130.61"/>
  <path class="cls-4" d="M333.5,206.91c15.4,14.2,25.55,36.14,18.9,57.19-11.05,35-72.17,53.93-102.7,68.1-26.92,12.5-70.28,34.22-54.91,70.98,5.09,12.17,14.72,21.12,26.24,26.95,4.95,2.51,9.97,4.87,16.69,6.57-3.13.63-6.63-.97-9.62-1.85-48.85-14.38-82.05-67.85-32.34-104.92,33.37-24.88,78.53-32.68,112.91-56.04,47.41-32.21,25.62-74.51-20.67-89.93-1.11-.37-2.51-.61-3.36-1.12,2.69-.15,5.34.6,7.94,1.3,14.33,3.85,30.04,12.73,40.92,22.76Z"/>
  <path class="cls-4" d="M302.85,197.43c16.45,15.1,12.1,34.61-3.33,48.34-36.07,32.1-114.85,40.23-137.98,82.88-16.86,31.1.77,67.68,26.38,87.54l-1.08.12c-13.88-9.79-25.66-22.19-33.77-37.19-9.24-17.08-13.42-38.98-8.36-57.97,14.18-53.14,93.3-60.49,131.72-90.35,24.08-18.72,16.03-39.08-9.97-47.68-.7-.23-1.41-.41-2.13-.56l-10.94-2.2c5.52-.83,11.9.27,17.37,1.4,11.42,2.35,23.48,7.77,32.1,15.67Z"/>
  <path class="cls-4" d="M345.56,211.36c21.96,19.21,37.29,46.91,35.13,76.93-4.63,64.05-90.8,71.31-130.84,104.62-21.66,18.02-17.83,38.12,8.92,44.68l10.47,1.49c-17.58.79-43.5-6.64-52.42-23.16-16.64-30.83,29.39-52.75,50.94-63.02,42.16-20.08,114.86-39.97,99.97-101.67-3.84-15.93-13.67-29.58-25.21-40.83-.88-.85-5.29-4.22-5.51-4.78-.32-.8.24-.84.94-.45,2.09,1.17,5.67,4.49,7.62,6.19Z"/>
  <path class="cls-4" d="M248.92,181.19c9.86,1.15,22.84,8.05,20.76,19.7-2.42,13.54-29.21,25.85-40.6,31.18-29.3,13.7-66.51,24.43-83.97,53.75-13.23,22.22-12.01,49.1-4.66,73.12-1.2-.96-1.83-3.26-2.46-4.73-12.67-29.59-9.65-67.67,10.11-93.4,22.47-29.24,63.12-34.53,91.82-54.64,6.39-4.48,13.88-15.86,6.5-21.48l-6.14-3.66c2.79.25,5.89-.15,8.64.17Z"/>
  <path class="cls-4" d="M368.18,365.16c-10.21,11.27-25.87,19.58-39.27,26.59-12.85,6.72-49.85,21.11-56.41,33.06-1.71,3.11-1.35,6.65,2.48,9.44,3.06,2.23,4.31,2.97,8.89,4.29-4.58.36-10.78-.3-15.89-2.15-9.4-3.41-14.85-10.18-9.44-19.67,9.92-17.43,52.8-34.16,71.22-43.66,36.24-18.68,59.42-40.03,57.45-84.2-.33-7.33-2.48-13.74-3.76-20.66-.15-.81.06-1.72.03-2.55.84.93,1.52,3.1,1.92,4.34,10.33,32.24,5.9,69.66-17.2,95.16Z"/>
  <path class="cls-4" d="M160.89,235.23c-6.56,5.56-12.82,13.07-17.2,20.48-2.55,4.31-4.42,9.02-6.8,13.42-.17-2.76,1.56-6.47,2.67-9.14,5.28-12.66,14.78-27.26,25.11-36.34,16.63-14.62,38.59-20.26,56.94-31.81,3.02-1.9,8.5-4.86,8.42-8.64,3.55-1.25,9.56-1.16,8.71,4.05-1.06,6.53-19.32,16.17-25.12,19.17-17.96,9.26-37.04,15.5-52.73,28.81Z"/>
  <path class="cls-4" d="M363.53,387.5c-17.98,20.43-50.72,27.79-71.32,46.69-3.54,4.8-6.25,5.22-7.61,2.66-.96-7.53,7.76-14.2,10.63-16.17,23.97-16.51,53.11-21.87,72.92-44.82,7.07-8.19,11.99-17.32,16.68-26.99.62,1.5-.39,3.34-.92,4.77-4.28,11.62-12.21,24.59-20.38,33.86Z"/>
  <path class="cls-4" d="M221.48,186.25c.26,1.28-.41.79-.95,1.13-7.68,4.88-17.25,8.5-25.43,12.64-3.77,1.91-7.66,4.61-11.34,6.32-.64.3-1.08.83-1.94.6,5.81-5.32,13.31-9.79,20.42-13.32,4.44-2.21,12.31-5.97,16.9-7.21.79-.21,1.54-.27,2.35-.17Z"/>
  <path class="cls-4" d="M340.1,411.74c.48.54-.69,1.28-1.01,1.57-6.78,6.31-23.43,14.49-32.24,17.94-2.17.85-4.59,2-6.9,2.11l40.15-21.62Z"/>
  <rect class="cls-5" x="424.13" y="176.71" width="2" height="265.83"/>
  <g transform="translate(467.19 325.63)"><path d="M12.467590000000001 -68.91534V0.0H8.049940000000001V-68.91534Z M72.64580000000001 -68.91534V-65.18488H53.0118V0.0H48.59415V-65.18488H28.96015V-68.91534Z M117.70583 -38.777150000000006V-34.94852H80.79391000000001V-38.777150000000006Z M146.66598000000002 -3.7304600000000003H172.28835000000004V0.0H142.24833V-68.91534H146.66598000000002Z M227.26355 -17.6706H194.57294000000002L187.99555 0.0H183.18522000000002L208.51308 -67.34462H213.42158L238.65127 0.0H233.84094000000002ZM225.88917 -21.40106 210.96733 -61.55259 195.94732000000002 -21.40106Z M299.51667000000003 -18.45596Q299.51667000000003 -13.15478 297.013335 -8.982555000000001Q294.51 -4.81033 289.552415 -2.405165Q284.59483 0.0 277.52659 0.0H255.63468V-68.91534H277.13391Q287.44176000000004 -68.91534 292.69385500000004 -64.154095Q297.94595000000004 -59.39285 297.94595000000004 -51.833760000000005Q297.94595000000004 -45.256370000000004 294.41183 -41.182315Q290.87771000000004 -37.10826 285.38019 -35.63571Q291.36856 -34.55584 295.44261500000005 -29.745510000000003Q299.51667000000003 -24.935180000000003 299.51667000000003 -18.45596ZM260.05233 -37.59911H277.33025000000004Q285.08568 -37.59911 289.25790500000005 -41.280485Q293.43013 -44.96186 293.43013 -51.44108000000001Q293.43013 -57.723960000000005 289.30699000000004 -61.35625Q285.18385 -64.98854 276.8394 -64.98854H260.05233ZM295.09902 -18.75047Q295.09902 -25.622370000000004 290.239605 -29.696425Q285.38019 -33.77048 276.93757 -33.77048H260.05233V-3.8286300000000004H277.23208Q285.57653 -3.8286300000000004 290.33777499999997 -7.804515Q295.09902 -11.7804 295.09902 -18.75047Z M322.78296 -65.18488V-36.42107H350.27056000000005V-32.69061H322.78296V-3.7304600000000003H353.21566V0.0H318.36531V-68.91534H353.21566V-65.18488Z M376.87463 -3.7304600000000003H402.49700000000007V0.0H372.45698000000004V-68.91534H376.87463Z" fill="#000"/></g>
  <g transform="translate(473.71 355.42)"><path d="M11.681460000000001 -6.1874400000000005Q11.681460000000001 -4.2672 10.899140000000001 -2.87147Q10.11682 -1.47574 8.64108 -0.73787Q7.1653400000000005 0.0 5.102860000000001 0.0H1.4224V-12.42822H5.102860000000001Q7.1653400000000005 -12.42822 8.64108 -11.681460000000001Q10.11682 -10.934700000000001 10.899140000000001 -9.530080000000002Q11.681460000000001 -8.12546 11.681460000000001 -6.1874400000000005ZM10.419080000000001 -6.1874400000000005Q10.419080000000001 -8.64108 9.058910000000001 -10.01903Q7.69874 -11.396980000000001 5.102860000000001 -11.396980000000001H2.6670000000000003V-1.03124H5.102860000000001Q7.69874 -1.03124 9.058910000000001 -2.39141Q10.419080000000001 -3.75158 10.419080000000001 -6.1874400000000005Z M16.28648 -11.414760000000001V-6.77418H20.99818V-5.74294H16.28648V-1.03124H21.53158V0.0H15.04188V-12.446H21.53158V-11.414760000000001Z M30.563820000000003 -3.2004H31.879540000000002Q31.968440000000005 -2.29362 32.679640000000006 -1.6090900000000001Q33.390840000000004 -0.92456 34.7599 -0.92456Q36.02228 -0.92456 36.76015 -1.57353Q37.498020000000004 -2.2225 37.498020000000004 -3.2181800000000003Q37.498020000000004 -4.01828 37.08908 -4.50723Q36.68014 -4.99618 36.07562 -5.23621Q35.47110000000001 -5.47624 34.404300000000006 -5.76072Q33.1597 -6.09854 32.43072 -6.41858Q31.701740000000004 -6.73862 31.186120000000003 -7.4142600000000005Q30.670500000000004 -8.0899 30.670500000000004 -9.2456Q30.670500000000004 -10.205720000000001 31.168340000000004 -10.96137Q31.666180000000004 -11.71702 32.57296000000001 -12.143740000000001Q33.47974000000001 -12.57046 34.653220000000005 -12.57046Q36.377880000000005 -12.57046 37.435790000000004 -11.72591Q38.493700000000004 -10.88136 38.65372000000001 -9.54786H37.302440000000004Q37.177980000000005 -10.3124 36.46678 -10.90803Q35.75558 -11.50366 34.54654000000001 -11.50366Q33.4264 -11.50366 32.679640000000006 -10.90803Q31.932880000000004 -10.3124 31.932880000000004 -9.28116Q31.932880000000004 -8.49884 32.34182 -8.01878Q32.75076 -7.5387200000000005 33.36417 -7.2898000000000005Q33.97758 -7.0408800000000005 35.0266 -6.7564Q36.235640000000004 -6.41858 36.982400000000005 -6.089650000000001Q37.72916000000001 -5.76072 38.244780000000006 -5.08508Q38.760400000000004 -4.40944 38.760400000000004 -3.27152Q38.760400000000004 -2.4003 38.298120000000004 -1.6179800000000002Q37.835840000000005 -0.8356600000000001 36.92906000000001 -0.3556Q36.02228 0.12446 34.7599 0.12446Q33.533080000000005 0.12446 32.599630000000005 -0.30226000000000003Q31.666180000000004 -0.7289800000000001 31.132780000000004 -1.49352Q30.599380000000004 -2.25806 30.563820000000003 -3.2004Z M49.499520000000004 -12.42822V-11.396980000000001H46.050200000000004V0.0H44.805600000000005V-11.396980000000001H41.3385V-12.42822Z M59.74080000000001 -2.95148H54.086760000000005L53.00218000000001 0.0H51.686460000000004L56.22036000000001 -12.2682H57.62498000000001L62.14110000000001 0.0H60.82538000000001ZM59.36742000000001 -3.98272 56.91378000000001 -10.70356 54.46014000000001 -3.98272Z M74.56932 0.0H73.32472000000001L66.44386 -10.454640000000001V0.0H65.19926000000001V-12.42822H66.44386L73.32472000000001 -1.99136V-12.42822H74.56932Z M88.7222 -6.1874400000000005Q88.7222 -4.2672 87.93988 -2.87147Q87.15756 -1.47574 85.68182 -0.73787Q84.20608 0.0 82.1436 0.0H78.46314V-12.42822H82.1436Q84.20608 -12.42822 85.68182 -11.681460000000001Q87.15756 -10.934700000000001 87.93988 -9.530080000000002Q88.7222 -8.12546 88.7222 -6.1874400000000005ZM87.45982000000001 -6.1874400000000005Q87.45982000000001 -8.64108 86.09965 -10.01903Q84.73948 -11.396980000000001 82.1436 -11.396980000000001H79.70774V-1.03124H82.1436Q84.73948 -1.03124 86.09965 -2.39141Q87.45982000000001 -3.75158 87.45982000000001 -6.1874400000000005Z M99.28352 -2.95148H93.62948L92.5449 0.0H91.22918L95.76308 -12.2682H97.1677L101.68382 0.0H100.3681ZM98.91014 -3.98272 96.45649999999999 -10.70356 94.00286 -3.98272Z M111.94288 -2.95148H106.28884000000001L105.20426 0.0H103.88854L108.42244000000001 -12.2682H109.82706L114.34318 0.0H113.02746ZM111.5695 -3.98272 109.11586 -10.70356 106.66222 -3.98272Z M124.0155 0.0 120.93956000000001 -5.19176H118.64594000000001V0.0H117.40134V-12.42822H121.13514Q123.2154 -12.42822 124.29109 -11.43254Q125.36678 -10.436860000000001 125.36678 -8.81888Q125.36678 -7.4676 124.59335000000002 -6.51637Q123.81992000000001 -5.56514 122.30862 -5.28066L125.50902 0.0ZM118.64594000000001 -6.205220000000001H121.15292000000001Q122.61088000000001 -6.205220000000001 123.34875000000001 -6.9164200000000005Q124.08662000000001 -7.62762 124.08662000000001 -8.81888Q124.08662000000001 -10.0457 123.37542000000002 -10.71245Q122.66422000000001 -11.3792 121.13514 -11.3792H118.64594000000001Z M139.16406 -6.1874400000000005Q139.16406 -4.2672 138.38174 -2.87147Q137.59942 -1.47574 136.12368 -0.73787Q134.64794 0.0 132.58546 0.0H128.905V-12.42822H132.58546Q134.64794 -12.42822 136.12368 -11.681460000000001Q137.59942 -10.934700000000001 138.38174 -9.530080000000002Q139.16406 -8.12546 139.16406 -6.1874400000000005ZM137.90168 -6.1874400000000005Q137.90168 -8.64108 136.54151000000002 -10.01903Q135.18134 -11.396980000000001 132.58546 -11.396980000000001H130.1496V-1.03124H132.58546Q135.18134 -1.03124 136.54151000000002 -2.39141Q137.90168 -3.75158 137.90168 -6.1874400000000005Z M158.31312000000003 -12.42822 153.60142000000002 0.0H152.17902L147.46732 -12.42822H148.8186L152.89022 -1.35128L156.99740000000003 -12.42822Z M160.67786 -6.223Q160.67786 -8.05434 161.48685 -9.503409999999999Q162.29584 -10.95248 163.70046000000002 -11.76147Q165.10508000000002 -12.57046 166.82974000000002 -12.57046Q168.57218 -12.57046 169.9768 -11.76147Q171.38142 -10.95248 172.18151999999998 -9.503409999999999Q172.98162 -8.05434 172.98162 -6.223Q172.98162 -4.39166 172.18151999999998 -2.94259Q171.38142 -1.49352 169.9768 -0.68453Q168.57218 0.12446 166.82974000000002 0.12446Q165.10508000000002 0.12446 163.70046000000002 -0.68453Q162.29584 -1.49352 161.48685 -2.94259Q160.67786 -4.39166 160.67786 -6.223ZM171.70146 -6.223Q171.70146 -7.805420000000001 171.06137999999999 -8.996680000000001Q170.4213 -10.187940000000001 169.31894 -10.82802Q168.21658 -11.4681 166.82974000000002 -11.4681Q165.4429 -11.4681 164.34054 -10.82802Q163.23818 -10.187940000000001 162.5981 -8.996680000000001Q161.95802 -7.805420000000001 161.95802 -6.223Q161.95802 -4.64058 162.5981 -3.44043Q163.23818 -2.2402800000000003 164.34054 -1.6002Q165.4429 -0.9601200000000001 166.82974000000002 -0.9601200000000001Q168.21658 -0.9601200000000001 169.31894 -1.6002Q170.4213 -2.2402800000000003 171.06137999999999 -3.44043Q171.70146 -4.64058 171.70146 -6.223Z M175.7553 -6.223Q175.7553 -8.05434 176.56429 -9.503409999999999Q177.37328 -10.95248 178.7779 -11.76147Q180.18252 -12.57046 181.90718 -12.57046Q183.64962 -12.57046 185.05424 -11.76147Q186.45886 -10.95248 187.25896 -9.503409999999999Q188.05906 -8.05434 188.05906 -6.223Q188.05906 -4.39166 187.25896 -2.94259Q186.45886 -1.49352 185.05424 -0.68453Q183.64962 0.12446 181.90718 0.12446Q180.18252 0.12446 178.7779 -0.68453Q177.37328 -1.49352 176.56429 -2.94259Q175.7553 -4.39166 175.7553 -6.223ZM186.7789 -6.223Q186.7789 -7.805420000000001 186.13882 -8.996680000000001Q185.49874 -10.187940000000001 184.39638 -10.82802Q183.29402 -11.4681 181.90718 -11.4681Q180.52034 -11.4681 179.41798 -10.82802Q178.31562 -10.187940000000001 177.67554 -8.996680000000001Q177.03546 -7.805420000000001 177.03546 -6.223Q177.03546 -4.64058 177.67554 -3.44043Q178.31562 -2.2402800000000003 179.41798 -1.6002Q180.52034 -0.9601200000000001 181.90718 -0.9601200000000001Q183.29402 -0.9601200000000001 184.39638 -1.6002Q185.49874 -2.2402800000000003 186.13882 -3.44043Q186.7789 -4.64058 186.7789 -6.223Z M198.01586 0.0 194.93992 -5.19176H192.6463V0.0H191.4017V-12.42822H195.1355Q197.21576 -12.42822 198.29145 -11.43254Q199.36714 -10.436860000000001 199.36714 -8.81888Q199.36714 -7.4676 198.59371 -6.51637Q197.82028 -5.56514 196.30898 -5.28066L199.50938 0.0ZM192.6463 -6.205220000000001H195.15328Q196.61124 -6.205220000000001 197.34911 -6.9164200000000005Q198.08697999999998 -7.62762 198.08697999999998 -8.81888Q198.08697999999998 -10.0457 197.37578 -10.71245Q196.66458 -11.3792 195.1355 -11.3792H192.6463Z M219.10294 -6.1874400000000005Q219.10294 -4.2672 218.32062 -2.87147Q217.5383 -1.47574 216.06256 -0.73787Q214.58682 0.0 212.52434 0.0H208.84388V-12.42822H212.52434Q214.58682 -12.42822 216.06256 -11.681460000000001Q217.5383 -10.934700000000001 218.32062 -9.530080000000002Q219.10294 -8.12546 219.10294 -6.1874400000000005ZM217.84056 -6.1874400000000005Q217.84056 -8.64108 216.48039 -10.01903Q215.12022 -11.396980000000001 212.52434 -11.396980000000001H210.08848V-1.03124H212.52434Q215.12022 -1.03124 216.48039 -2.39141Q217.84056 -3.75158 217.84056 -6.1874400000000005Z M223.70796 -12.42822V0.0H222.46336000000002V-12.42822Z M237.38078000000002 -8.8011Q236.84738000000002 -10.02792 235.75391000000002 -10.73023Q234.66044000000002 -11.432540000000001 233.18470000000002 -11.432540000000001Q231.79786000000001 -11.432540000000001 230.6955 -10.792460000000002Q229.59314 -10.15238 228.95306 -8.97001Q228.31298 -7.787640000000001 228.31298 -6.223Q228.31298 -4.65836 228.95306 -3.4671000000000003Q229.59314 -2.27584 230.6955 -1.63576Q231.79786000000001 -0.99568 233.18470000000002 -0.99568Q234.48264 -0.99568 235.52277 -1.5557500000000002Q236.5629 -2.1158200000000003 237.19409000000002 -3.1559500000000003Q237.82528000000002 -4.19608 237.91418000000002 -5.5829200000000005H232.68686V-6.59638H239.22990000000001V-5.6896Q239.14100000000002 -4.05384 238.34090000000003 -2.7292300000000003Q237.54080000000002 -1.40462 236.19841000000002 -0.64008Q234.85602 0.12446 233.18470000000002 0.12446Q231.46004000000002 0.12446 230.05542000000003 -0.68453Q228.6508 -1.49352 227.84181 -2.94259Q227.03282000000002 -4.39166 227.03282000000002 -6.223Q227.03282000000002 -8.05434 227.84181 -9.503409999999999Q228.6508 -10.95248 230.05542000000003 -11.76147Q231.46004000000002 -12.57046 233.18470000000002 -12.57046Q235.17606 -12.57046 236.66958 -11.57478Q238.16310000000001 -10.5791 238.83874 -8.8011Z M243.81714000000002 -12.42822V0.0H242.57254000000003V-12.42822Z M254.98298000000003 -12.42822V-11.396980000000001H251.53366000000003V0.0H250.28906V-11.396980000000001H246.82196000000002V-12.42822Z M265.2242600000001 -2.95148H259.57022000000006L258.48564000000005 0.0H257.16992000000005L261.70382000000006 -12.2682H263.10844000000003L267.62456000000003 0.0H266.30884000000003ZM264.85088 -3.98272 262.39724000000007 -10.70356 259.94360000000006 -3.98272Z M277.88362000000006 -2.95148H272.22958000000006L271.14500000000004 0.0H269.82928000000004L274.36318000000006 -12.2682H275.7678L280.28392 0.0H278.9682ZM277.51024 -3.98272 275.05660000000006 -10.70356 272.60296000000005 -3.98272Z M284.58668 -1.01346H289.04946V0.0H283.34208V-12.42822H284.58668Z M307.6829 -12.42822 302.9712 0.0H301.5488L296.8371 -12.42822H298.18838000000005L302.26000000000005 -1.35128L306.36718 -12.42822Z M317.8175 -2.95148H312.16346000000004L311.07888 0.0H309.76316L314.29706000000004 -12.2682H315.70168L320.2178 0.0H318.90208ZM317.44412 -3.98272 314.99048000000005 -10.70356 312.53684000000004 -3.98272Z M322.84924 -3.2004H324.16496Q324.25386000000003 -2.29362 324.96506 -1.6090900000000001Q325.67626 -0.92456 327.04532 -0.92456Q328.3077 -0.92456 329.04557 -1.57353Q329.78344000000004 -2.2225 329.78344000000004 -3.2181800000000003Q329.78344000000004 -4.01828 329.3745 -4.50723Q328.96556000000004 -4.99618 328.36104 -5.23621Q327.75652 -5.47624 326.68972 -5.76072Q325.44512000000003 -6.09854 324.71614 -6.41858Q323.98716 -6.73862 323.47154 -7.4142600000000005Q322.95592 -8.0899 322.95592 -9.2456Q322.95592 -10.205720000000001 323.45376 -10.96137Q323.95160000000004 -11.71702 324.85838 -12.143740000000001Q325.76516000000004 -12.57046 326.93864 -12.57046Q328.6633 -12.57046 329.72121000000004 -11.72591Q330.77912000000003 -10.88136 330.93914 -9.54786H329.58786000000003Q329.46340000000004 -10.3124 328.7522 -10.90803Q328.041 -11.50366 326.83196000000004 -11.50366Q325.71182 -11.50366 324.96506 -10.90803Q324.2183 -10.3124 324.2183 -9.28116Q324.2183 -8.49884 324.62724000000003 -8.01878Q325.03618 -7.5387200000000005 325.64959 -7.2898000000000005Q326.26300000000003 -7.0408800000000005 327.31202 -6.7564Q328.52106000000003 -6.41858 329.26782000000003 -6.089650000000001Q330.01458 -5.76072 330.53020000000004 -5.08508Q331.04582 -4.40944 331.04582 -3.27152Q331.04582 -2.4003 330.58353999999997 -1.6179800000000002Q330.12126 -0.8356600000000001 329.21448 -0.3556Q328.3077 0.12446 327.04532 0.12446Q325.81850000000003 0.12446 324.88505000000004 -0.30226000000000003Q323.95160000000004 -0.7289800000000001 323.41820000000007 -1.49352Q322.88480000000004 -2.25806 322.84924 -3.2004Z M341.78494 -12.42822V-11.396980000000001H338.33562V0.0H337.09102V-11.396980000000001H333.62392V-12.42822Z M354.60432000000003 -8.8011Q354.07092000000006 -10.02792 352.9774500000001 -10.73023Q351.88398000000007 -11.432540000000001 350.40824000000003 -11.432540000000001Q349.0214 -11.432540000000001 347.91904000000005 -10.792460000000002Q346.8166800000001 -10.15238 346.17660000000006 -8.97001Q345.53652000000005 -7.787640000000001 345.53652000000005 -6.223Q345.53652000000005 -4.65836 346.17660000000006 -3.4671000000000003Q346.8166800000001 -2.27584 347.91904000000005 -1.63576Q349.0214 -0.99568 350.40824000000003 -0.99568Q351.7061800000001 -0.99568 352.74631000000005 -1.5557500000000002Q353.78644 -2.1158200000000003 354.41763000000003 -3.1559500000000003Q355.04882000000003 -4.19608 355.13772000000006 -5.5829200000000005H349.91040000000004V-6.59638H356.45344000000006V-5.6896Q356.36454000000003 -4.05384 355.56444000000005 -2.7292300000000003Q354.76434000000006 -1.40462 353.42195000000004 -0.64008Q352.0795600000001 0.12446 350.40824000000003 0.12446Q348.68358000000006 0.12446 347.2789600000001 -0.68453Q345.8743400000001 -1.49352 345.0653500000001 -2.94259Q344.25636000000003 -4.39166 344.25636000000003 -6.223Q344.25636000000003 -8.05434 345.0653500000001 -9.503409999999999Q345.8743400000001 -10.95248 347.2789600000001 -11.76147Q348.68358000000006 -12.57046 350.40824000000003 -12.57046Q352.3996000000001 -12.57046 353.89312000000007 -11.57478Q355.38664000000006 -10.5791 356.06228000000004 -8.8011Z M359.22712 -6.223Q359.22712 -8.05434 360.03611 -9.503409999999999Q360.84510000000006 -10.95248 362.24972 -11.76147Q363.65434000000005 -12.57046 365.379 -12.57046Q367.12144 -12.57046 368.52606000000003 -11.76147Q369.93068000000005 -10.95248 370.73078000000004 -9.503409999999999Q371.53088 -8.05434 371.53088 -6.223Q371.53088 -4.39166 370.73078000000004 -2.94259Q369.93068000000005 -1.49352 368.52606000000003 -0.68453Q367.12144 0.12446 365.379 0.12446Q363.65434000000005 0.12446 362.24972 -0.68453Q360.84510000000006 -1.49352 360.03611 -2.94259Q359.22712 -4.39166 359.22712 -6.223ZM370.25072000000006 -6.223Q370.25072000000006 -7.805420000000001 369.61064000000005 -8.996680000000001Q368.97056000000003 -10.187940000000001 367.8682 -10.82802Q366.76584 -11.4681 365.379 -11.4681Q363.99216 -11.4681 362.88980000000004 -10.82802Q361.78744000000006 -10.187940000000001 361.14736000000005 -8.996680000000001Q360.50728000000004 -7.805420000000001 360.50728000000004 -6.223Q360.50728000000004 -4.64058 361.14736000000005 -3.44043Q361.78744000000006 -2.2402800000000003 362.88980000000004 -1.6002Q363.99216 -0.9601200000000001 365.379 -0.9601200000000001Q366.76584 -0.9601200000000001 367.8682 -1.6002Q368.97056000000003 -2.2402800000000003 369.61064000000005 -3.44043Q370.25072000000006 -4.64058 370.25072000000006 -6.223Z M376.11812000000003 -11.414760000000001V-6.77418H380.82982000000004V-5.74294H376.11812000000003V-1.03124H381.36322000000007V0.0H374.87352000000004V-12.446H381.36322000000007V-11.414760000000001Z M395.14272000000005 -6.1874400000000005Q395.14272000000005 -4.2672 394.3604 -2.87147Q393.57808000000006 -1.47574 392.10234 -0.73787Q390.62660000000005 0.0 388.56412000000006 0.0H384.88366V-12.42822H388.56412000000006Q390.62660000000005 -12.42822 392.10234 -11.681460000000001Q393.57808000000006 -10.934700000000001 394.3604 -9.530080000000002Q395.14272000000005 -8.12546 395.14272000000005 -6.1874400000000005ZM393.88034000000005 -6.1874400000000005Q393.88034000000005 -8.64108 392.52017 -10.01903Q391.16 -11.396980000000001 388.56412000000006 -11.396980000000001H386.12826V-1.03124H388.56412000000006Q391.16 -1.03124 392.52017 -2.39141Q393.88034000000005 -3.75158 393.88034000000005 -6.1874400000000005Z" fill="#000"/></g>
</svg>